<svg xmlns="http://www.w3.org/2000/svg" width="607" height="268" fill="none"><path fill="#000" d="M3.52273 230.909h4.20454l9.88633 24.148h.3409l9.8864-24.148h4.2046V260H28.75v-22.102h-.2841L19.375 260h-3.1818l-9.09093-22.102h-.28409V260H3.52273v-29.091Zm53.08597 0h4.0341l8.0681 13.58h.3409l8.0682-13.58h4.0341l-10.5113 17.102V260H67.12v-11.989l-10.5113-17.102ZM160.369 240h-3.522c-.209-1.013-.573-1.903-1.094-2.67-.512-.768-1.137-1.411-1.875-1.932-.729-.531-1.539-.928-2.429-1.193-.89-.266-1.818-.398-2.784-.398-1.762 0-3.357.445-4.787 1.335-1.421.89-2.552 2.202-3.395 3.935-.833 1.733-1.25 3.859-1.25 6.378 0 2.518.417 4.644 1.25 6.377.843 1.733 1.974 3.045 3.395 3.935 1.43.89 3.025 1.335 4.787 1.335.966 0 1.894-.132 2.784-.397.89-.266 1.7-.659 2.429-1.179.738-.531 1.363-1.179 1.875-1.946.521-.777.885-1.667 1.094-2.671h3.522c-.265 1.487-.748 2.817-1.449 3.992-.7 1.174-1.572 2.173-2.613 2.997-1.042.814-2.211 1.434-3.509 1.861-1.288.426-2.665.639-4.133.639-2.481 0-4.688-.606-6.62-1.818-1.931-1.213-3.451-2.936-4.559-5.171-1.108-2.235-1.662-4.886-1.662-7.954 0-3.069.554-5.72 1.662-7.955 1.108-2.235 2.628-3.958 4.559-5.17 1.932-1.213 4.139-1.819 6.62-1.819 1.468 0 2.845.213 4.133.64 1.298.426 2.467 1.051 3.509 1.875 1.041.814 1.913 1.808 2.613 2.983.701 1.164 1.184 2.495 1.449 3.991Zm50.238 5.455c0 3.068-.554 5.719-1.662 7.954-1.108 2.235-2.628 3.958-4.559 5.171-1.932 1.212-4.139 1.818-6.62 1.818s-4.687-.606-6.619-1.818c-1.932-1.213-3.452-2.936-4.56-5.171-1.108-2.235-1.662-4.886-1.662-7.954 0-3.069.554-5.72 1.662-7.955 1.108-2.235 2.628-3.958 4.56-5.17 1.932-1.213 4.138-1.819 6.619-1.819s4.688.606 6.62 1.819c1.931 1.212 3.451 2.935 4.559 5.17s1.662 4.886 1.662 7.955Zm-3.409 0c0-2.519-.421-4.645-1.264-6.378-.833-1.733-1.965-3.045-3.395-3.935-1.42-.89-3.011-1.335-4.773-1.335-1.761 0-3.357.445-4.787 1.335-1.42.89-2.552 2.202-3.394 3.935-.834 1.733-1.25 3.859-1.25 6.378 0 2.518.416 4.644 1.25 6.377.842 1.733 1.974 3.045 3.394 3.935 1.43.89 3.026 1.335 4.787 1.335 1.762 0 3.353-.445 4.773-1.335 1.43-.89 2.562-2.202 3.395-3.935.843-1.733 1.264-3.859 1.264-6.377ZM245.508 260h-8.977v-29.091h9.375c2.822 0 5.236.582 7.244 1.747 2.007 1.156 3.546 2.817 4.616 4.986 1.07 2.159 1.605 4.744 1.605 7.756 0 3.03-.539 5.639-1.619 7.826-1.079 2.178-2.651 3.855-4.716 5.029-2.064 1.165-4.574 1.747-7.528 1.747Zm-5.455-3.125h5.228c2.405 0 4.398-.464 5.98-1.392 1.581-.928 2.76-2.249 3.537-3.963.776-1.714 1.164-3.755 1.164-6.122 0-2.349-.383-4.371-1.15-6.066-.767-1.704-1.913-3.011-3.438-3.92-1.524-.919-3.423-1.378-5.696-1.378h-5.625v22.841Zm48.75-25.966V260h-3.522v-29.091h3.522Zm50.132 0V260h-3.409l-15.853-22.841h-.284V260h-3.523v-29.091h3.41l15.909 22.898h.284v-22.898h3.466ZM385.87 240c-.312-.956-.724-1.813-1.236-2.571-.502-.767-1.103-1.42-1.804-1.96-.691-.54-1.477-.952-2.358-1.236-.88-.284-1.846-.426-2.897-.426-1.724 0-3.291.445-4.702 1.335-1.411.89-2.533 2.202-3.367 3.935-.833 1.733-1.25 3.859-1.25 6.378 0 2.518.422 4.644 1.265 6.377.842 1.733 1.983 3.045 3.423 3.935 1.439.89 3.059 1.335 4.858 1.335 1.667 0 3.134-.355 4.403-1.065 1.279-.72 2.273-1.733 2.983-3.04.72-1.316 1.08-2.864 1.08-4.645l1.079.228h-8.75v-3.125h11.08v3.125c0 2.395-.512 4.479-1.534 6.25-1.014 1.77-2.415 3.143-4.205 4.119-1.78.966-3.826 1.449-6.136 1.449-2.576 0-4.839-.606-6.79-1.818-1.941-1.213-3.456-2.936-4.545-5.171-1.08-2.235-1.62-4.886-1.62-7.954 0-2.302.308-4.371.924-6.208.625-1.846 1.505-3.418 2.642-4.716 1.136-1.297 2.481-2.291 4.034-2.983 1.553-.691 3.262-1.037 5.128-1.037 1.534 0 2.964.232 4.289.696 1.336.455 2.524 1.104 3.566 1.946 1.051.834 1.927 1.833 2.628 2.998.7 1.155 1.183 2.438 1.448 3.849h-3.636Zm59.499-5.966v-3.125h21.819v3.125h-9.148V260h-3.523v-25.966h-9.148ZM492.624 260v-29.091h17.557v3.125h-14.034v9.83h13.125v3.125h-13.125v9.886h14.261V260h-17.784Zm59.816-21.818c-.171-1.44-.862-2.557-2.074-3.352-1.212-.796-2.699-1.194-4.46-1.194-1.288 0-2.415.209-3.381.625-.957.417-1.705.99-2.244 1.719-.531.729-.796 1.558-.796 2.486 0 .776.185 1.444.554 2.003.379.549.862 1.008 1.449 1.378.587.359 1.203.658 1.847.894.643.228 1.235.412 1.775.554l2.955.796c.757.199 1.6.473 2.528.824.938.35 1.832.828 2.685 1.434.861.597 1.572 1.364 2.13 2.302.559.937.838 2.088.838 3.451 0 1.572-.411 2.993-1.235 4.262-.815 1.269-2.008 2.277-3.58 3.025-1.562.748-3.461 1.122-5.696 1.122-2.083 0-3.887-.336-5.412-1.008-1.515-.673-2.708-1.61-3.579-2.813-.862-1.202-1.35-2.599-1.463-4.19h3.636c.095 1.098.464 2.008 1.108 2.727.653.71 1.477 1.241 2.471 1.591 1.004.341 2.084.512 3.239.512 1.345 0 2.552-.218 3.622-.654 1.07-.445 1.918-1.06 2.543-1.846.625-.796.937-1.724.937-2.785 0-.965-.27-1.751-.809-2.357-.54-.607-1.25-1.099-2.131-1.478-.881-.379-1.832-.71-2.855-.994l-3.58-1.023c-2.272-.653-4.072-1.586-5.397-2.798-1.326-1.212-1.989-2.798-1.989-4.759 0-1.628.44-3.049 1.321-4.261.89-1.222 2.083-2.169 3.58-2.841 1.505-.682 3.186-1.023 5.042-1.023 1.875 0 3.542.337 5 1.009 1.459.663 2.614 1.572 3.466 2.727.862 1.155 1.316 2.467 1.364 3.935h-3.409Zm28.007-4.148v-3.125h21.819v3.125h-9.148V260h-3.523v-25.966h-9.148ZM3 .684204h31.4737v220.316H3zM191.842.684204h31.4737v220.316H191.842zM568.511.684204H601v220.316h-32.489zM96.4058.684204h31.4737v220.316H96.4058z"/><path fill="#000" d="M3 32.1579V.6842h220.316v31.4737z"/><path fill="#000" d="M191.842 32.1579V.6842h220.316v31.4737z"/><path fill="#000" d="M380.684 32.1579V.6842H601v31.4737zM191.842 221v-31.4737h220.316V221z"/></svg>