<svg xmlns="http://www.w3.org/2000/svg" width="189" height="84" fill="#000" xmlns:v="https://vecta.io/nano"><path d="M.903 72.061h2.029l2.717 6.632h.107l2.717-6.632h2.029v9.152H8.911v-6.288h-.085l-2.529 6.261H5.108l-2.529-6.274h-.085v6.301H.903v-9.152zm16.756 0h1.872l2.239 4.049h.089l2.239-4.049h1.872l-3.329 5.738v3.414h-1.654v-3.414l-3.329-5.738zm32.397 3.088h-1.671a2.08 2.08 0 0 0-.264-.728 1.96 1.96 0 0 0-.478-.545 1.98 1.98 0 0 0-.653-.335c-.245-.074-.502-.116-.782-.116a2.37 2.37 0 0 0-1.323.375c-.384.25-.685.611-.903 1.09s-.326 1.059-.326 1.747c0 .7.109 1.29.326 1.77s.521.837.903 1.081.824.362 1.318.362c.274 0 .53-.036.769-.107a2.1 2.1 0 0 0 .648-.326c.194-.143.356-.319.487-.527a1.99 1.99 0 0 0 .277-.715l1.671.009a3.6 3.6 0 0 1-.407 1.225 3.61 3.61 0 0 1-.809 1.01 3.73 3.73 0 0 1-1.171.679c-.447.161-.943.241-1.488.241-.804 0-1.522-.186-2.154-.559s-1.129-.91-1.493-1.613-.545-1.546-.545-2.529.183-1.829.55-2.529.865-1.241 1.497-1.613 1.347-.559 2.145-.559c.509 0 .983.072 1.421.215a3.64 3.64 0 0 1 1.171.63 3.36 3.36 0 0 1 .845 1.01c.221.399.369.849.438 1.359zm15.674 1.488c0 .986-.185 1.831-.554 2.534s-.867 1.236-1.501 1.609-1.348.559-2.15.559-1.519-.186-2.154-.559-1.132-.913-1.501-1.613-.55-1.546-.55-2.529.183-1.829.55-2.529.87-1.241 1.502-1.613 1.353-.559 2.154-.559 1.518.186 2.15.559 1.135.91 1.501 1.613.554 1.543.554 2.529zm-1.667 0c0-.694-.109-1.28-.326-1.756s-.513-.842-.894-1.086-.821-.371-1.318-.371a2.37 2.37 0 0 0-1.318.371c-.381.247-.681.606-.898 1.086s-.322 1.062-.322 1.756.107 1.281.322 1.761.517.839.898 1.086a2.39 2.39 0 0 0 1.318.367 2.39 2.39 0 0 0 1.318-.367c.381-.247.679-.609.894-1.086s.326-1.067.326-1.761zm12.313 4.576h-3.101v-9.152h3.164c.909 0 1.689.183 2.342.55a3.7 3.7 0 0 1 1.51 1.569c.351.683.527 1.499.527 2.449s-.177 1.773-.532 2.458-.859 1.211-1.524 1.578-1.457.55-2.386.55zm-1.443-1.434h1.363c.638 0 1.169-.116 1.595-.349a2.23 2.23 0 0 0 .961-1.05c.215-.468.322-1.052.322-1.752s-.107-1.281-.322-1.743-.532-.812-.952-1.041-.936-.349-1.555-.349h-1.412v6.283zm15.096-7.718v9.152h-1.658v-9.152h1.658zm15.294 0v9.152h-1.475l-4.312-6.234h-.076v6.234h-1.658v-9.152h1.484l4.308 6.239h.081v-6.239h1.649zm13.915 2.923c-.075-.241-.177-.457-.308-.648s-.283-.359-.465-.496a1.89 1.89 0 0 0-.617-.308 2.57 2.57 0 0 0-.76-.107c-.491 0-.929.124-1.313.371s-.687.611-.908 1.09-.326 1.058-.326 1.743c0 .691.109 1.277.326 1.756s.52.845.908 1.095.837.371 1.349.371c.465 0 .867-.089 1.207-.268s.606-.432.791-.76.277-.718.277-1.162l.375.058h-2.484v-1.296h3.713v1.099c0 .784-.167 1.461-.5 2.033a3.42 3.42 0 0 1-1.377 1.323c-.584.307-1.254.46-2.011.46-.843 0-1.583-.189-2.221-.567s-1.13-.922-1.488-1.622-.532-1.537-.532-2.503c0-.739.105-1.399.313-1.98s.507-1.074.885-1.479a3.76 3.76 0 0 1 1.332-.929c.509-.215 1.063-.322 1.662-.322a4.37 4.37 0 0 1 1.417.223 3.76 3.76 0 0 1 1.166.626 3.49 3.49 0 0 1 .845.965 3.4 3.4 0 0 1 .433 1.233h-1.689zm18.043-1.533v-1.39h7.302v1.39h-2.829v7.762h-1.645v-7.762h-2.828zm14.687 7.762v-9.152h5.953v1.39h-4.295v2.485h3.986v1.39h-3.986v2.498h4.33v1.39h-5.988zm18.595-6.636c-.041-.39-.217-.694-.527-.912s-.706-.326-1.198-.326c-.345 0-.642.052-.889.156s-.436.246-.568.424-.198.383-.201.612a.93.93 0 0 0 .13.496 1.18 1.18 0 0 0 .362.358c.152.095.32.176.505.241a5.4 5.4 0 0 0 .559.165l.858.215a5.93 5.93 0 0 1 .996.326 3.54 3.54 0 0 1 .863.518 2.3 2.3 0 0 1 .607.755c.149.295.224.641.224 1.037 0 .536-.137 1.008-.411 1.417s-.671.722-1.189.952-1.14.34-1.872.34c-.713 0-1.331-.11-1.855-.331s-.93-.542-1.225-.965-.449-.939-.473-1.546h1.631c.024.319.122.584.295.796s.398.369.675.474.593.156.938.156c.361 0 .676-.054.948-.161s.488-.262.643-.456a1.1 1.1 0 0 0 .237-.688c-.003-.238-.073-.435-.21-.59s-.329-.289-.577-.393a5.55 5.55 0 0 0-.858-.286l-1.041-.268c-.754-.194-1.349-.487-1.787-.88s-.653-.922-.653-1.578c0-.539.146-1.011.438-1.417s.696-.719 1.202-.943 1.08-.34 1.721-.34c.649 0 1.218.113 1.707.34s.877.535 1.157.934a2.39 2.39 0 0 1 .434 1.367h-1.596zm8.774-1.126v-1.39h7.302v1.39h-2.828v7.762h-1.645v-7.762h-2.829zM0 0h9.902v69.313H0zm59.411 0h9.902v69.313h-9.902zm118.503 0h10.221v69.313h-10.221zM29.386 0h9.902v69.313h-9.902z"/><path d="M0 9.902V0h69.313v9.902z"/><path d="M59.411 9.902V0h69.313v9.902z"/><path d="M118.822 9.902V0h69.313v9.902zM59.411 69.313v-9.902h69.313v9.902z"/></svg>