<svg width="34" height="34" viewBox="0 0 34 34" fill="none" xmlns="http://www.w3.org/2000/svg">
<rect width="33.5893" height="33.5893" fill="white"/>
<path d="M9.94448 29.0674H10.7256L11.7717 31.6208H11.813L12.8592 29.0674H13.6403V32.5912H13.0278V30.1703H12.9951L12.0212 32.5809H11.5636L10.5897 30.1652H10.557V32.5912H9.94448V29.0674ZM18.5512 30.2564H17.9077C17.8894 30.1508 17.8555 30.0573 17.8062 29.9759C17.7569 29.8933 17.6955 29.8233 17.6221 29.766C17.5487 29.7086 17.465 29.6656 17.3709 29.6369C17.278 29.6071 17.1776 29.5922 17.0698 29.5922C16.8782 29.5922 16.7085 29.6404 16.5605 29.7367C16.4125 29.8319 16.2967 29.9719 16.2129 30.1566C16.1292 30.3401 16.0873 30.5643 16.0873 30.8293C16.0873 31.0989 16.1292 31.326 16.2129 31.5107C16.2978 31.6942 16.4137 31.833 16.5605 31.927C16.7085 32.02 16.8777 32.0664 17.0681 32.0664C17.1736 32.0664 17.2723 32.0526 17.364 32.0251C17.4569 31.9964 17.5401 31.9546 17.6135 31.8995C17.6881 31.8445 17.7506 31.7768 17.801 31.6965C17.8527 31.6162 17.8882 31.5244 17.9077 31.4212L18.5512 31.4246C18.5271 31.5921 18.4749 31.7492 18.3946 31.8961C18.3155 32.0429 18.2117 32.1725 18.0832 32.2849C17.9548 32.3962 17.8045 32.4834 17.6324 32.5465C17.4604 32.6084 17.2694 32.6394 17.0595 32.6394C16.7498 32.6394 16.4733 32.5677 16.2302 32.4243C15.987 32.2809 15.7954 32.0739 15.6555 31.8032C15.5155 31.5325 15.4456 31.2078 15.4456 30.8293C15.4456 30.4496 15.5161 30.125 15.6572 29.8555C15.7983 29.5847 15.9904 29.3777 16.2336 29.2343C16.4768 29.0909 16.7521 29.0192 17.0595 29.0192C17.2556 29.0192 17.438 29.0468 17.6066 29.1018C17.7752 29.1569 17.9255 29.2378 18.0574 29.3444C18.1893 29.45 18.2977 29.5796 18.3826 29.7333C18.4686 29.8859 18.5248 30.0602 18.5512 30.2564ZM20.1806 29.6025V29.0674H22.992V29.6025H21.9029V32.5912H21.2697V29.6025H20.1806Z" fill="black"/>
<rect x="3.59888" y="1.19962" width="3.81238" height="26.6867" fill="black"/>
<rect x="26.4731" y="1.19962" width="3.81238" height="26.6867" fill="black"/>
<rect x="14.913" y="1.19962" width="3.81238" height="26.6867" fill="black"/>
<rect x="3.59888" y="5.01199" width="3.81238" height="26.6867" transform="rotate(-90 3.59888 5.01199)" fill="black"/>
</svg>
